<?xml version="1.0" encoding="UTF-8"?>
<svg xmlns="http://www.w3.org/2000/svg" version="1.1" viewBox="0 0 1920 1080">
  <!-- Generator: Adobe Illustrator 28.7.9, SVG Export Plug-In . SVG Version: 1.2.0 Build 218)  -->
  <g>
    <g id="Camada_1">
      <path d="M234.7,426.5c52.5,0,86.6,25.7,86.6,78.8s-34.1,78.2-86.6,78.2h-43.2v54.3h-57.4v-211.3h100.5ZM223.9,535.2c20.8,0,38.3-7.5,38.3-29.9s-17.5-30.5-38.3-30.5h-32.3v60.4h32.3Z"/>
      <path d="M446.6,637.8l-37.1-69.4h-24.4v69.4h-57.4v-211.3h97.2c52.5,0,83.9,25.1,83.9,71.5s-14.2,51.6-39.8,62.5l42.9,77.3h-65.2ZM385,474.8v48.3h32.6c20.8,0,32.3-7.5,32.3-23.8s-11.5-24.4-32.3-24.4h-32.6Z"/>
      <path d="M673,477.8h-96.3v31.7h83v44.1h-83v32.9h96.3v51.3h-116.8c-21.4,0-36.8-15.4-36.8-36.8v-174.5h153.6v51.3Z"/>
      <path d="M672.4,531.9c0-63.4,43.8-108.4,112.6-108.4s103.8,36.8,111.1,90.9h-59.5c-5.7-25.1-24.1-38-51.6-38s-53.7,19.9-53.7,56.1,19.9,55.5,53.7,55.5,45.9-13,51.6-37.4h59.8c-8.1,53.7-49.5,90.3-111.4,90.3s-112.6-45-112.6-109Z"/>
      <path d="M1037.4,637.8l-11.5-37.4h-77.9l-11.5,37.4h-60.4l61.6-174.8c11.8-33.8,26.3-39.5,49.2-39.5s37.4,5.7,49.2,39.5l61.6,174.8h-60.4ZM963.1,552.1h47.7l-23.8-77-23.8,77Z"/>
      <path d="M1200,426.5c52.5,0,86.6,25.7,86.6,78.8s-34.1,78.2-86.6,78.2h-43.2v54.3h-57.4v-211.3h100.5ZM1189.2,535.2c20.8,0,38.3-7.5,38.3-29.9s-17.5-30.5-38.3-30.5h-32.3v60.4h32.3Z"/>
      <path d="M1343.7,438c-3.9-3.8-7.8-7.7-11.7-11.5h-37.2v211.3h16.7c13.6-13.3,27.1-26.6,40.7-39.8v-151.6c-2.8-2.8-5.7-5.5-8.5-8.3Z"/>
      <path d="M1449.8,509.8c-3.3,4.1-6.1,4.4-10.2.3-24.3-24.2-48.9-48-73.4-72-16.3-16-32.6-32-48.9-48.1-1.8-1.8-4-3.3-5.2-7.2,3.3,0,5.8,0,8.3,0,28.5,0,56.9,0,85.4-.2,5.1,0,9,1.5,12.5,4.9,24.5,24,48.9,48,73.5,71.9,3.5,3.4,3.4,5.9,0,9.2"/>
      <path d="M1341.1,730.2c50.1-48.9,100.2-97.8,150.3-146.7,3-2.9,4.4-5.4.9-9.4-13.9-15.8-30-29.2-44.6-44.2-2.7-2.8-4.6-1.4-6.9.9-9.4,9.4-19,18.7-28.5,28-52.4,51.4-104.8,102.7-157.3,154.1-5.9,5.8-11.8,11.6-17.7,17.4h103.7Z"/>
      <path d="M1785.8,296.3h-103.3c-12,11.7-24,23.5-36,35.2-23.3,22.8-46.6,45.6-69.9,68.4-24,23.5-47.8,47.2-72,70.5-15.9,15.4-30.9,31.7-47.8,46.1-3.9,3.3-2.3,5.5.6,8.4,48.6,47.4,97.2,94.8,145.7,142.4,3.3,3.3,6.6,4.5,11.1,4.5,28-.1,56.1,0,84.1-.1,3.5,0,7.3,1,11.1-1.3-1.7-1.9-3-3.5-4.5-4.9-46.2-45.1-92.3-90.2-138.5-135.3-3.3-3.2-8.9-6-9.4-9.6"/>
    </g>
  </g>
</svg>